<svg width="412" height="412" viewBox="0 0 412 412" fill="none" xmlns="http://www.w3.org/2000/svg">
<g filter="url(#filter0_i_39_30)">
<rect width="412" height="412" rx="93" fill="#FE2E5A"/>
</g>
<mask id="path-2-outside-1_39_30" maskUnits="userSpaceOnUse" x="137" y="87" width="162" height="257" fill="black">
<rect fill="white" x="137" y="87" width="162" height="257"/>
<path d="M156.866 334C154.05 334 151.558 333.35 149.391 332.05C147.225 330.533 146.141 328.367 146.141 325.55V104.55C146.141 101.733 147.225 99.675 149.391 98.375C151.558 97.075 154.05 96.425 156.866 96.425C159.466 96.425 161.85 97.075 164.016 98.375C166.4 99.675 167.591 101.733 167.591 104.55V219.275L261.516 99.675C263.033 97.5083 265.2 96.425 268.016 96.425C269.966 96.425 271.808 96.9667 273.541 98.05C275.491 99.1333 277.008 100.542 278.091 102.275C279.391 104.008 280.041 105.742 280.041 107.475C280.041 108.125 279.933 108.992 279.716 110.075C279.5 110.942 279.066 111.7 278.416 112.35L208.541 199.125L288.491 319.375C289.358 320.675 289.791 322.083 289.791 323.6C289.791 325.55 289.141 327.392 287.841 329.125C286.758 330.642 285.241 331.942 283.291 333.025C281.558 334.108 279.608 334.65 277.441 334.65C275.925 334.65 274.408 334.217 272.891 333.35C271.591 332.483 270.4 331.292 269.316 329.775L194.241 217.325L167.591 250.8V325.55C167.591 328.367 166.4 330.533 164.016 332.05C161.85 333.35 159.466 334 156.866 334Z"/>
</mask>
<path d="M149.391 332.05L144.23 339.423L144.49 339.605L144.761 339.767L149.391 332.05ZM164.016 98.375L159.386 106.092L159.544 106.188L159.707 106.276L164.016 98.375ZM167.591 219.275H158.591V245.307L174.67 224.834L167.591 219.275ZM261.516 99.675L268.595 105.234L268.748 105.039L268.889 104.836L261.516 99.675ZM273.541 98.05L268.771 105.682L268.968 105.805L269.171 105.917L273.541 98.05ZM278.091 102.275L270.459 107.045L270.662 107.369L270.891 107.675L278.091 102.275ZM279.716 110.075L288.448 112.258L288.5 112.05L288.542 111.84L279.716 110.075ZM278.416 112.35L272.052 105.986L271.71 106.328L271.407 106.705L278.416 112.35ZM208.541 199.125L201.532 193.48L197.396 198.617L201.047 204.108L208.541 199.125ZM288.491 319.375L280.997 324.358L281.003 324.367L288.491 319.375ZM287.841 329.125L280.641 323.725L280.579 323.809L280.518 323.894L287.841 329.125ZM283.291 333.025L278.921 325.158L278.718 325.27L278.521 325.393L283.291 333.025ZM272.891 333.35L267.899 340.838L268.157 341.01L268.426 341.164L272.891 333.35ZM269.316 329.775L261.831 334.772L261.91 334.89L261.993 335.006L269.316 329.775ZM194.241 217.325L201.727 212.328L194.88 202.073L187.2 211.719L194.241 217.325ZM167.591 250.8L160.55 245.194L158.591 247.655V250.8H167.591ZM164.016 332.05L168.647 339.767L168.748 339.707L168.848 339.643L164.016 332.05ZM156.866 325C155.489 325 154.634 324.7 154.022 324.333L144.761 339.767C148.482 342 152.611 343 156.866 343V325ZM154.553 324.677C154.55 324.675 154.619 324.723 154.718 324.836C154.82 324.952 154.921 325.098 155.004 325.263C155.181 325.617 155.141 325.788 155.141 325.55H137.141C137.141 331.078 139.479 336.097 144.23 339.423L154.553 324.677ZM155.141 325.55V104.55H137.141V325.55H155.141ZM155.141 104.55C155.141 104.297 155.186 104.577 154.918 105.085C154.789 105.331 154.623 105.559 154.437 105.751C154.255 105.939 154.099 106.046 154.022 106.092L144.761 90.6576C139.53 93.796 137.141 99.0069 137.141 104.55H155.141ZM154.022 106.092C154.634 105.725 155.489 105.425 156.866 105.425V87.425C152.611 87.425 148.482 88.4247 144.761 90.6576L154.022 106.092ZM156.866 105.425C157.885 105.425 158.66 105.657 159.386 106.092L168.647 90.6575C165.04 88.4931 161.048 87.425 156.866 87.425V105.425ZM159.707 106.276C159.659 106.25 159.252 105.995 158.909 105.403C158.576 104.829 158.591 104.432 158.591 104.55H176.591C176.591 101.852 176.011 99.0173 174.486 96.3844C172.952 93.734 170.757 91.8 168.326 90.4739L159.707 106.276ZM158.591 104.55V219.275H176.591V104.55H158.591ZM174.67 224.834L268.595 105.234L254.438 94.1163L160.513 213.716L174.67 224.834ZM268.889 104.836C268.891 104.833 268.843 104.902 268.73 105.002C268.615 105.104 268.469 105.205 268.304 105.287C267.949 105.465 267.778 105.425 268.016 105.425V87.425C262.488 87.425 257.469 89.7625 254.143 94.5138L268.889 104.836ZM268.016 105.425C268.196 105.425 268.396 105.447 268.771 105.682L278.311 90.418C275.22 88.4859 271.736 87.425 268.016 87.425V105.425ZM269.171 105.917C269.914 106.33 270.256 106.719 270.459 107.045L285.723 97.505C283.76 94.364 281.069 91.9364 277.912 90.1826L269.171 105.917ZM270.891 107.675C271.113 107.971 271.148 108.092 271.127 108.035C271.116 108.005 271.093 107.937 271.074 107.834C271.054 107.73 271.041 107.608 271.041 107.475H289.041C289.041 103.352 287.463 99.7709 285.291 96.875L270.891 107.675ZM271.041 107.475C271.041 107.325 271.052 107.316 271.03 107.496C271.009 107.664 270.967 107.93 270.891 108.31L288.542 111.84C288.806 110.518 289.041 108.987 289.041 107.475H271.041ZM270.985 107.892C271.072 107.545 271.213 107.181 271.415 106.828C271.615 106.478 271.842 106.197 272.052 105.986L284.78 118.714C286.549 116.946 287.824 114.754 288.448 112.258L270.985 107.892ZM271.407 106.705L201.532 193.48L215.551 204.77L285.426 117.995L271.407 106.705ZM201.047 204.108L280.997 324.358L295.986 314.392L216.036 194.142L201.047 204.108ZM281.003 324.367C280.983 324.337 280.919 324.229 280.864 324.053C280.81 323.875 280.791 323.712 280.791 323.6H298.791C298.791 320.251 297.801 317.114 295.98 314.383L281.003 324.367ZM280.791 323.6C280.791 323.585 280.793 323.557 280.799 323.522C280.805 323.486 280.813 323.46 280.817 323.448C280.821 323.437 280.817 323.452 280.793 323.495C280.77 323.539 280.723 323.616 280.641 323.725L295.041 334.525C297.373 331.416 298.791 327.713 298.791 323.6H280.791ZM280.518 323.894C280.349 324.13 279.93 324.597 278.921 325.158L287.662 340.892C290.553 339.286 293.167 337.153 295.165 334.356L280.518 323.894ZM278.521 325.393C278.306 325.528 278.027 325.65 277.441 325.65V343.65C281.189 343.65 284.811 342.689 288.061 340.657L278.521 325.393ZM277.441 325.65C277.492 325.65 277.539 325.654 277.577 325.659C277.615 325.665 277.636 325.67 277.639 325.671C277.646 325.673 277.553 325.648 277.357 325.536L268.426 341.164C271.094 342.689 274.134 343.65 277.441 343.65V325.65ZM277.884 325.862C277.648 325.704 277.209 325.34 276.64 324.544L261.993 335.006C263.591 337.243 265.535 339.263 267.899 340.838L277.884 325.862ZM276.802 324.778L201.727 212.328L186.756 222.322L261.831 334.772L276.802 324.778ZM187.2 211.719L160.55 245.194L174.633 256.406L201.283 222.931L187.2 211.719ZM158.591 250.8V325.55H176.591V250.8H158.591ZM158.591 325.55C158.591 325.618 158.584 325.574 158.615 325.447C158.646 325.315 158.708 325.14 158.812 324.95C158.916 324.761 159.03 324.617 159.122 324.522C159.21 324.432 159.247 324.417 159.185 324.457L168.848 339.643C173.818 336.48 176.591 331.455 176.591 325.55H158.591ZM159.386 324.333C158.66 324.768 157.885 325 156.866 325V343C161.048 343 165.04 341.932 168.647 339.767L159.386 324.333Z" fill="white" mask="url(#path-2-outside-1_39_30)"/>
<defs>
<filter id="filter0_i_39_30" x="0" y="0" width="412" height="413" filterUnits="userSpaceOnUse" color-interpolation-filters="sRGB">
<feFlood flood-opacity="0" result="BackgroundImageFix"/>
<feBlend mode="normal" in="SourceGraphic" in2="BackgroundImageFix" result="shape"/>
<feColorMatrix in="SourceAlpha" type="matrix" values="0 0 0 0 0 0 0 0 0 0 0 0 0 0 0 0 0 0 127 0" result="hardAlpha"/>
<feMorphology radius="0.75" operator="erode" in="SourceAlpha" result="effect1_innerShadow_39_30"/>
<feOffset dy="1"/>
<feGaussianBlur stdDeviation="1"/>
<feComposite in2="hardAlpha" operator="arithmetic" k2="-1" k3="1"/>
<feColorMatrix type="matrix" values="0 0 0 0 1 0 0 0 0 1 0 0 0 0 1 0 0 0 0.6 0"/>
<feBlend mode="normal" in2="shape" result="effect1_innerShadow_39_30"/>
</filter>
</defs>
</svg>
